<svg width="256" height="256" viewBox="0 0 256 256" fill="none" xmlns="http://www.w3.org/2000/svg">
<g clip-path="url(#clip0_1_19)">
<mask id="mask0_1_19" style="mask-type:luminance" maskUnits="userSpaceOnUse" x="0" y="0" width="256" height="256">
<path d="M0 0H256V256H0V0Z" fill="white"/>
</mask>
<g mask="url(#mask0_1_19)">
<path d="M129.668 20.1885C132.008 19.7728 134.371 19.812 136.643 20.2783L137.32 20.4316C140.693 21.257 143.806 23.0241 146.297 25.5889L146.593 25.9004C149.598 29.148 151.014 33.1644 154.616 43.876L155.131 45.3965C160.404 60.8393 164.245 68.2713 171.421 77.6572H171.422L171.7 78.0146C174.734 81.8353 182.368 89.4155 186.273 92.4297L187.718 93.5361C194.746 98.8774 199.036 101.44 208.888 106.278L212.091 107.86C218.95 111.274 221.698 112.878 224.423 115.401L224.706 115.669C227.592 118.454 229.383 121.973 229.925 125.727L229.991 126.238C230.592 131.524 228.69 136.853 224.688 140.858L224.687 140.857C221.954 143.591 217.679 145.63 210.936 148.314L209.554 148.86C200.551 152.393 194.817 155.054 189.714 158.013L188.701 158.609C174.832 166.892 164.731 175.938 154.472 189.388L153.479 190.703C149.213 196.406 145.888 201.722 140.522 211.6L139.421 213.637C134.343 223.08 132.189 226.796 129.318 229.842L128.733 230.443C127.239 231.937 125.121 233.674 123.252 234.581L123.251 234.582C120.573 235.881 117.412 236.36 114.641 236.374C112.03 236.387 109.095 235.99 106.513 234.925L106.001 234.702C104.441 233.991 102.77 233.116 101.184 231.771C99.5601 230.394 98.2936 228.756 97.1768 226.797C95.1193 223.188 93.2028 217.765 90.4521 209.523L88.7412 204.424C85.349 194.397 83.8637 190.607 81.374 185.31L80.7803 184.057C76.1999 174.463 72.1571 168.439 66.1318 162.099L65.543 161.483C58.9551 154.671 53.3807 150.392 43.7695 145.001L41.792 143.907C38.3727 142.04 35.6622 140.458 33.5938 139.084C31.7638 137.868 30.0083 136.543 28.7422 135.029L28.4961 134.724H28.4951C25.8235 131.294 24.6003 127.162 24.9629 123.018L25.001 122.637C25.436 118.715 27.2668 115.05 30.1826 112.134L30.1836 112.133L30.5 111.826C32.1121 110.309 34.1603 109.058 36.6504 107.796C39.3483 106.428 42.9989 104.838 47.9658 102.803L49.9492 101.982C59.5781 97.9682 64.9638 95.168 70.749 91.3252H70.75L71.6318 90.7344C80.6554 84.6324 86.903 78.6867 93.1982 70.2891L94.2168 68.9131C99.2512 62.0254 103.482 54.8795 110.315 41.6543L112.237 37.9512C116.367 30.0498 118.188 27.0841 121.157 24.4141V24.4131C122.233 23.4459 123.407 22.4726 124.868 21.7129C126.369 20.9325 127.822 20.5585 129.2 20.2773L129.668 20.1885Z" fill="#783BFF" stroke="white" stroke-width="12.1983"/>
<path d="M120.589 229.094C117.392 230.646 111.864 230.673 108.532 229.153L103.494 120.499L223.889 126.598C224.387 130.051 223.217 133.701 220.374 136.547C218.526 138.396 215.158 140.108 207.325 143.183C197.564 147.014 191.339 149.93 185.574 153.373C170.537 162.353 159.65 172.267 148.594 187.051C143.789 193.476 140.146 199.412 134.049 210.748C128.517 221.037 126.843 223.711 124.423 226.129C123.148 227.403 121.586 228.61 120.589 229.094Z" fill="url(#paint0_radial_1_19)"/>
<path d="M44.7158 138.554C37.9834 134.877 34.5913 132.623 33.3067 130.975C31.5588 128.731 30.814 126.121 31.0391 123.549L103.494 120.499L108.532 229.153C103.142 226.695 101.868 224.46 96.238 207.592C91.2371 192.609 89.7274 188.641 86.2842 181.429C81.318 171.027 76.8077 164.358 69.9271 157.244C62.4004 149.461 56.0073 144.721 44.7158 138.554Z" fill="url(#paint1_radial_1_19)"/>
<path d="M206.199 111.753C215.679 116.408 217.945 117.715 220.28 119.877C222.33 121.775 223.533 124.136 223.889 126.598L103.494 120.499L135.416 26.2532C137.847 26.7523 140.116 27.9784 141.922 29.8379C143.941 31.9163 144.925 34.1918 148.835 45.8205C154.52 62.7244 158.644 70.9862 166.576 81.361C169.738 85.4971 178.126 93.8458 182.547 97.258C190.84 103.658 195.378 106.438 206.199 111.753Z" fill="url(#paint2_radial_1_19)"/>
<path d="M125.235 28.9486C127.177 27.2032 128.09 26.7287 130.42 26.2533C132.098 25.9109 133.793 25.9202 135.416 26.2533L103.494 120.499L31.0391 123.549C31.2608 121.015 32.4236 118.518 34.4959 116.446C36.4436 114.499 40.3856 112.5 50.2786 108.446C61.3797 103.897 67.496 100.809 74.1241 96.4058C84.18 89.7263 91.1444 83.1968 98.0781 73.9475C103.87 66.2206 108.377 58.6933 115.734 44.4537C121.481 33.332 122.856 31.088 125.235 28.9486Z" fill="url(#paint3_radial_1_19)"/>
</g>
</g>
<defs>
<radialGradient id="paint0_radial_1_19" cx="0" cy="0" r="1" gradientUnits="userSpaceOnUse" gradientTransform="translate(167.283 219.989) rotate(-73.8936) scale(108.208 164.325)">
<stop stop-color="white" stop-opacity="0.6"/>
<stop offset="1" stop-color="white" stop-opacity="0.1"/>
</radialGradient>
<radialGradient id="paint1_radial_1_19" cx="0" cy="0" r="1" gradientUnits="userSpaceOnUse" gradientTransform="translate(87.4891 225.736) rotate(-109.328) scale(96.9948 82.2684)">
<stop stop-color="white" stop-opacity="0.6"/>
<stop offset="1" stop-color="#A0A0A0" stop-opacity="0.1"/>
</radialGradient>
<radialGradient id="paint2_radial_1_19" cx="0" cy="0" r="1" gradientUnits="userSpaceOnUse" gradientTransform="translate(167.224 117.196) rotate(-72.4842) scale(99.6498 162.957)">
<stop stop-color="white" stop-opacity="0.6"/>
<stop offset="1" stop-color="white" stop-opacity="0.1"/>
</radialGradient>
<radialGradient id="paint3_radial_1_19" cx="0" cy="0" r="1" gradientUnits="userSpaceOnUse" gradientTransform="translate(63.6133 120.709) rotate(-68.1784) scale(106.081 121.049)">
<stop stop-color="white" stop-opacity="0.8"/>
<stop offset="1" stop-color="white" stop-opacity="0.4"/>
</radialGradient>
<clipPath id="clip0_1_19">
<rect width="256" height="256" fill="white"/>
</clipPath>
</defs>
</svg>
